<?xml version="1.0" encoding="UTF-8" standalone="no"?>
<svg
   version="1.0"
   width="512.000000pt"
   height="512.000000pt"
   viewBox="0 0 512.000000 512.000000"
   preserveAspectRatio="xMidYMid meet"
   id="svg4"
   sodipodi:docname="menu.svg"
   inkscape:version="1.3 (0e150ed6c4, 2023-07-21)"
   xmlns:inkscape="http://www.inkscape.org/namespaces/inkscape"
   xmlns:sodipodi="http://sodipodi.sourceforge.net/DTD/sodipodi-0.dtd"
   xmlns="http://www.w3.org/2000/svg"
   xmlns:svg="http://www.w3.org/2000/svg">
  <defs
     id="defs4" />
  <sodipodi:namedview
     id="namedview4"
     pagecolor="#ffffff"
     bordercolor="#000000"
     borderopacity="0.25"
     inkscape:showpageshadow="2"
     inkscape:pageopacity="0.0"
     inkscape:pagecheckerboard="0"
     inkscape:deskcolor="#d1d1d1"
     inkscape:document-units="pt"
     inkscape:zoom="1.1806641"
     inkscape:cx="340.90984"
     inkscape:cy="341.33333"
     inkscape:window-width="1920"
     inkscape:window-height="1008"
     inkscape:window-x="0"
     inkscape:window-y="0"
     inkscape:window-maximized="1"
     inkscape:current-layer="svg4" />
  <g
     transform="translate(0.000000,512.000000) scale(0.100000,-0.100000)"
     fill="#000000"
     stroke="none"
     id="g4"
     style="fill:#ffffff">
    <path
       d="M50 4427 c-54 -27 -63 -94 -20 -137 20 -20 44 -20 2530 -20 2486 0 2510 0 2530 20 43 43 34 110 -20 137 -37 19 -4983 19 -5020 0z"
       id="path1"
       style="fill:#ffffff" />
    <path
       d="M32 3220 c-46 -43 -37 -109 18 -137 37 -19 4983 -19 5020 0 55 28 64 94 18 137 -22 20 -24 20 -2528 20 -2504 0 -2506 0 -2528 -20z"
       id="path2"
       style="fill:#ffffff" />
    <path
       d="M50 2037 c-55 -28 -64 -94 -18 -137 22 -20 24 -20 2528 -20 2504 0 2506 0 2528 20 46 43 37 109 -18 137 -37 19 -4983 19 -5020 0z"
       id="path3"
       style="fill:#ffffff" />
    <path
       d="M30 830 c-43 -43 -34 -110 20 -137 37 -19 4983 -19 5020 0 54 27 63 94 20 137 -20 20 -44 20 -2530 20 -2486 0 -2510 0 -2530 -20z"
       id="path4"
       style="fill:#ffffff" />
  </g>
</svg>
