<?xml version="1.0" encoding="UTF-8" standalone="no"?>
<svg
   version="1.0"
   width="512.000000pt"
   height="512.000000pt"
   viewBox="0 0 512.000000 512.000000"
   preserveAspectRatio="xMidYMid meet"
   id="svg2"
   sodipodi:docname="fil3e.svg"
   inkscape:version="1.3 (0e150ed6c4, 2023-07-21)"
   xmlns:inkscape="http://www.inkscape.org/namespaces/inkscape"
   xmlns:sodipodi="http://sodipodi.sourceforge.net/DTD/sodipodi-0.dtd"
   xmlns="http://www.w3.org/2000/svg"
   xmlns:svg="http://www.w3.org/2000/svg">
  <defs
     id="defs2" />
  <sodipodi:namedview
     id="namedview2"
     pagecolor="#ffffff"
     bordercolor="#000000"
     borderopacity="0.25"
     inkscape:showpageshadow="2"
     inkscape:pageopacity="0.0"
     inkscape:pagecheckerboard="0"
     inkscape:deskcolor="#d1d1d1"
     inkscape:document-units="pt"
     inkscape:zoom="1.1806641"
     inkscape:cx="340.90984"
     inkscape:cy="341.33333"
     inkscape:window-width="1920"
     inkscape:window-height="1008"
     inkscape:window-x="0"
     inkscape:window-y="0"
     inkscape:window-maximized="1"
     inkscape:current-layer="svg2" />
  <g
     transform="translate(0.000000,512.000000) scale(0.100000,-0.100000)"
     fill="#000000"
     stroke="none"
     id="g2"
     style="fill:#ffffff">
    <path
       d="M1668 5110 c-42 -25 -1125 -1033 -1141 -1062 -16 -31 -17 -138 -15 -1943 3 -1815 4 -1912 21 -1950 23 -50 70 -100 122 -128 l40 -22 1865 0 1865 0 41 22 c52 28 108 90 125 139 21 58 21 4730 0 4788 -17 49 -73 111 -125 139 l-41 22 -1370 2 c-888 2 -1376 -1 -1387 -7z m2744 -188 l23 -23 0 -2339 0 -2339 -23 -23 -23 -23 -1829 0 -1829 0 -23 23 -23 23 0 1852 0 1852 465 5 c452 5 466 6 505 27 52 28 89 68 114 123 20 43 21 64 21 458 l0 412 1300 -2 1299 -3 23 -23z m-2807 -788 c-8 -13 -25 -26 -38 -29 -12 -3 -184 -4 -382 -3 l-359 3 394 365 395 364 3 -338 c2 -290 0 -342 -13 -362z"
       id="path1"
       style="fill:#ffffff" />
    <path
       d="M1994 3587 l-29 -25 0 -1002 0 -1002 29 -25 c21 -18 38 -24 60 -21 34 4 1494 951 1534 994 12 14 22 38 22 54 0 16 -10 40 -22 54 -38 41 -1498 987 -1533 993 -24 4 -38 -1 -61 -20z m756 -622 c333 -217 605 -400 605 -405 0 -10 -1203 -800 -1217 -800 -5 0 -8 360 -8 800 0 440 3 800 8 800 4 0 279 -178 612 -395z"
       id="path2"
       style="fill:#ffffff" />
  </g>
</svg>
